<svg xmlns="http://www.w3.org/2000/svg" xmlns:xlink="http://www.w3.org/1999/xlink" width="300" zoomAndPan="magnify" viewBox="0 0 224.87999 187.499995" height="250" preserveAspectRatio="xMidYMid meet" version="1.0"><defs><clipPath id="db9f0e96ac"><path d="M 0.238281 0 L 224.519531 0 L 224.519531 187 L 0.238281 187 Z M 0.238281 0 " clip-rule="nonzero"/></clipPath><clipPath id="a5cd2f679a"><path d="M 0.238281 0 L 64.046875 0 L 64.046875 36.109375 L 0.238281 36.109375 Z M 0.238281 0 " clip-rule="nonzero"/></clipPath><clipPath id="7aa07a109e"><path d="M -128.160156 -3.535156 L 58.777344 -3.535156 C 60.167969 -3.535156 61.503906 -2.976562 62.488281 -1.992188 C 63.46875 -1.003906 64.023438 0.335938 64.023438 1.734375 L 64.023438 30.84375 C 64.023438 32.238281 63.46875 33.578125 62.488281 34.566406 C 61.503906 35.554688 60.167969 36.109375 58.777344 36.109375 L -128.160156 36.109375 C -129.550781 36.109375 -130.882812 35.554688 -131.867188 34.566406 C -132.851562 33.578125 -133.402344 32.238281 -133.402344 30.84375 L -133.402344 1.734375 C -133.402344 0.335938 -132.851562 -1.003906 -131.867188 -1.992188 C -130.882812 -2.976562 -129.550781 -3.535156 -128.160156 -3.535156 Z M -128.160156 -3.535156 " clip-rule="nonzero"/></clipPath><clipPath id="434f989d0c"><path d="M 161.644531 117.128906 L 224.519531 117.128906 L 224.519531 187 L 161.644531 187 Z M 161.644531 117.128906 " clip-rule="nonzero"/></clipPath><clipPath id="046f110351"><path d="M 166.890625 117.128906 L 353.871094 117.128906 C 355.265625 117.128906 356.597656 117.679688 357.582031 118.660156 C 358.566406 119.640625 359.117188 120.972656 359.117188 122.355469 L 359.117188 189.695312 C 359.117188 191.082031 358.566406 192.410156 357.582031 193.390625 C 356.597656 194.371094 355.265625 194.921875 353.871094 194.921875 L 166.890625 194.921875 C 165.5 194.921875 164.164062 194.371094 163.179688 193.390625 C 162.195312 192.410156 161.644531 191.082031 161.644531 189.695312 L 161.644531 122.355469 C 161.644531 120.972656 162.195312 119.640625 163.179688 118.660156 C 164.164062 117.679688 165.5 117.128906 166.890625 117.128906 Z M 166.890625 117.128906 " clip-rule="nonzero"/></clipPath></defs><g clip-path="url(#db9f0e96ac)"><path fill="#ffffff" d="M 0.238281 0 L 224.640625 0 L 224.640625 187 L 0.238281 187 Z M 0.238281 0 " fill-opacity="1" fill-rule="nonzero"/><path fill="#010920" d="M 0.238281 0 L 224.640625 0 L 224.640625 187 L 0.238281 187 Z M 0.238281 0 " fill-opacity="1" fill-rule="nonzero"/></g><g clip-path="url(#a5cd2f679a)"><g clip-path="url(#7aa07a109e)"><path stroke-linecap="butt" transform="matrix(0.749291, 0, 0, 0.752888, -133.403775, -3.533571)" fill="none" stroke-linejoin="miter" d="M 6.998103 -0.0021057 L 256.483832 -0.0021057 C 258.339752 -0.0021057 260.122687 0.739829 261.436428 2.047293 C 262.744956 3.359947 263.485239 5.139551 263.485239 6.996981 L 263.485239 45.660582 C 263.485239 47.512824 262.744956 49.292429 261.436428 50.605082 C 260.122687 51.917735 258.339752 52.654481 256.483832 52.654481 L 6.998103 52.654481 C 5.142183 52.654481 3.364462 51.917735 2.050721 50.605082 C 0.736979 49.292429 0.00190969 47.512824 0.00190969 45.660582 L 0.00190969 6.996981 C 0.00190969 5.139551 0.736979 3.359947 2.050721 2.047293 C 3.364462 0.739829 5.142183 -0.0021057 6.998103 -0.0021057 Z M 6.998103 -0.0021057 " stroke="#ffffff" stroke-width="4" stroke-opacity="1" stroke-miterlimit="4"/></g></g><g clip-path="url(#434f989d0c)"><g clip-path="url(#046f110351)"><path stroke-linecap="butt" transform="matrix(0.749291, 0, 0, 0.746659, 161.644275, 117.130686)" fill="none" stroke-linejoin="miter" d="M 7.001749 -0.0023832 L 256.544824 -0.0023832 C 258.405957 -0.0023832 260.183679 0.735278 261.49742 2.048419 C 262.811161 3.36156 263.546231 5.145548 263.546231 6.997548 L 263.546231 97.185747 C 263.546231 99.042978 262.811161 100.821735 261.49742 102.134876 C 260.183679 103.448017 258.405957 104.185678 256.544824 104.185678 L 7.001749 104.185678 C 5.145829 104.185678 3.362895 103.448017 2.049153 102.134876 C 0.735412 100.821735 0.000342457 99.042978 0.000342457 97.185747 L 0.000342457 6.997548 C 0.000342457 5.145548 0.735412 3.36156 2.049153 2.048419 C 3.362895 0.735278 5.145829 -0.0023832 7.001749 -0.0023832 Z M 7.001749 -0.0023832 " stroke="#ffffff" stroke-width="4" stroke-opacity="1" stroke-miterlimit="4"/></g></g></svg>