<svg xmlns="http://www.w3.org/2000/svg" xmlns:xlink="http://www.w3.org/1999/xlink" width="300" zoomAndPan="magnify" viewBox="0 0 224.87999 187.499995" height="250" preserveAspectRatio="xMidYMid meet" version="1.0"><defs><clipPath id="991b7f6b8d"><path d="M 0.238281 0 L 224.519531 0 L 224.519531 187 L 0.238281 187 Z M 0.238281 0 " clip-rule="nonzero"/></clipPath><clipPath id="5b0701c95b"><path d="M 164.910156 8.652344 L 213.53125 8.652344 L 213.53125 57 L 164.910156 57 Z M 164.910156 8.652344 " clip-rule="nonzero"/></clipPath></defs><g clip-path="url(#991b7f6b8d)"><path fill="#ffffff" d="M 0.238281 0 L 224.640625 0 L 224.640625 187 L 0.238281 187 Z M 0.238281 0 " fill-opacity="1" fill-rule="nonzero"/><path fill="#0e0e0e" d="M 0.238281 0 L 224.640625 0 L 224.640625 187 L 0.238281 187 Z M 0.238281 0 " fill-opacity="1" fill-rule="nonzero"/></g><g clip-path="url(#5b0701c95b)"><path fill="#ffffff" d="M 192.011719 42.136719 C 189.335938 43.730469 186.207031 44.644531 182.863281 44.644531 C 172.957031 44.644531 164.910156 36.601562 164.910156 26.691406 C 164.910156 16.785156 172.957031 8.738281 182.863281 8.738281 C 192.773438 8.738281 200.816406 16.785156 200.816406 26.691406 C 200.816406 26.875 200.8125 27.054688 200.808594 27.234375 L 202.675781 27.855469 C 203.199219 27.175781 204.011719 26.734375 204.933594 26.71875 L 208.03125 17.414062 C 207.351562 16.882812 206.914062 16.054688 206.914062 15.125 C 206.914062 13.523438 208.214844 12.21875 209.816406 12.21875 C 211.417969 12.21875 212.71875 13.523438 212.71875 15.125 C 212.71875 16.710938 211.445312 18 209.867188 18.027344 L 206.769531 27.328125 C 207.449219 27.863281 207.886719 28.691406 207.886719 29.621094 C 207.886719 31.222656 206.585938 32.523438 204.984375 32.523438 C 203.40625 32.523438 202.121094 31.265625 202.082031 29.699219 L 200.640625 29.21875 C 200.316406 31.519531 199.550781 33.683594 198.4375 35.621094 L 212.046875 49.226562 C 213.730469 50.914062 213.730469 53.644531 212.046875 55.328125 C 211.921875 55.453125 211.796875 55.574219 211.675781 55.699219 C 209.992188 57.382812 207.257812 57.382812 205.574219 55.699219 Z M 197.359375 37.277344 C 196.316406 38.707031 195.0625 39.972656 193.652344 41.039062 L 206.945312 54.332031 C 207.871094 55.257812 209.378906 55.257812 210.308594 54.332031 C 210.429688 54.207031 210.554688 54.082031 210.675781 53.960938 C 211.605469 53.03125 211.605469 51.527344 210.675781 50.597656 Z M 198.878906 26.589844 C 198.824219 17.796875 191.671875 10.675781 182.863281 10.675781 C 174.023438 10.675781 166.847656 17.851562 166.847656 26.691406 C 166.847656 35.53125 174.023438 42.707031 182.863281 42.707031 C 191.058594 42.707031 197.828125 36.539062 198.769531 28.59375 L 190.730469 25.914062 C 190.199219 26.601562 189.367188 27.042969 188.433594 27.042969 C 188.226562 27.042969 188.03125 27.023438 187.835938 26.980469 L 184.144531 33.460938 C 184.585938 33.972656 184.855469 34.636719 184.855469 35.363281 C 184.855469 36.96875 183.554688 38.269531 181.953125 38.269531 C 180.347656 38.269531 179.046875 36.96875 179.046875 35.363281 C 179.046875 34.917969 179.148438 34.496094 179.328125 34.117188 L 173.511719 28.300781 C 173.132812 28.480469 172.710938 28.582031 172.265625 28.582031 C 170.660156 28.582031 169.359375 27.28125 169.359375 25.679688 C 169.359375 24.074219 170.660156 22.773438 172.265625 22.773438 C 173.867188 22.773438 175.167969 24.074219 175.167969 25.679688 C 175.167969 26.128906 175.066406 26.554688 174.882812 26.933594 L 180.695312 32.746094 C 181.074219 32.5625 181.5 32.460938 181.953125 32.460938 C 182.125 32.460938 182.296875 32.476562 182.460938 32.503906 L 186.183594 25.976562 C 185.773438 25.476562 185.527344 24.835938 185.527344 24.140625 C 185.527344 22.535156 186.828125 21.234375 188.433594 21.234375 C 190.015625 21.234375 191.300781 22.503906 191.335938 24.078125 Z M 181.953125 34.398438 C 181.417969 34.398438 180.984375 34.832031 180.984375 35.363281 C 180.984375 35.898438 181.417969 36.332031 181.953125 36.332031 C 182.484375 36.332031 182.917969 35.898438 182.917969 35.363281 C 182.917969 35.0625 182.78125 34.796875 182.566406 34.617188 C 182.421875 34.5 182.246094 34.421875 182.050781 34.402344 Z M 204.984375 28.652344 C 204.449219 28.652344 204.015625 29.085938 204.015625 29.621094 C 204.015625 30.054688 204.300781 30.421875 204.695312 30.546875 C 204.785156 30.574219 204.882812 30.589844 204.984375 30.589844 L 205.082031 30.582031 C 205.570312 30.535156 205.953125 30.121094 205.953125 29.621094 C 205.953125 29.308594 205.804688 29.027344 205.570312 28.851562 C 205.433594 28.746094 205.265625 28.675781 205.082031 28.65625 Z M 172.265625 24.710938 C 171.730469 24.710938 171.296875 25.144531 171.296875 25.679688 C 171.296875 26.210938 171.730469 26.644531 172.265625 26.644531 L 172.363281 26.640625 C 172.851562 26.589844 173.234375 26.179688 173.234375 25.679688 C 173.234375 25.175781 172.851562 24.765625 172.363281 24.714844 Z M 188.433594 23.171875 C 187.898438 23.171875 187.464844 23.605469 187.464844 24.140625 C 187.464844 24.507812 187.667969 24.828125 187.972656 24.992188 L 188.054688 25.03125 C 188.171875 25.082031 188.296875 25.109375 188.433594 25.109375 L 188.53125 25.101562 C 188.628906 25.09375 188.722656 25.066406 188.808594 25.03125 C 189.15625 24.882812 189.398438 24.539062 189.398438 24.140625 C 189.398438 23.640625 189.019531 23.226562 188.53125 23.175781 Z M 209.816406 14.15625 C 209.28125 14.15625 208.847656 14.589844 208.847656 15.125 C 208.847656 15.660156 209.28125 16.09375 209.816406 16.09375 L 209.914062 16.085938 C 210.402344 16.039062 210.785156 15.625 210.785156 15.125 C 210.785156 14.625 210.402344 14.210938 209.914062 14.160156 Z M 209.816406 14.15625 " fill-opacity="1" fill-rule="evenodd"/></g></svg>