<svg xmlns="http://www.w3.org/2000/svg" xmlns:xlink="http://www.w3.org/1999/xlink" width="300" zoomAndPan="magnify" viewBox="0 0 224.87999 187.499995" height="250" preserveAspectRatio="xMidYMid meet" version="1.0"><defs><clipPath id="60273803a3"><path d="M 0.238281 0 L 224.519531 0 L 224.519531 187 L 0.238281 187 Z M 0.238281 0 " clip-rule="nonzero"/></clipPath><clipPath id="81cae95c1d"><path d="M 181.289062 19.496094 L 208.789062 19.496094 L 208.789062 46.34375 L 181.289062 46.34375 Z M 181.289062 19.496094 " clip-rule="nonzero"/></clipPath><clipPath id="197e9ee15e"><path d="M 182.234375 13.414062 L 211.777344 13.414062 L 211.777344 44.4375 L 182.234375 44.4375 Z M 182.234375 13.414062 " clip-rule="nonzero"/></clipPath></defs><g clip-path="url(#60273803a3)"><path fill="#ffffff" d="M 0.238281 0 L 224.640625 0 L 224.640625 187 L 0.238281 187 Z M 0.238281 0 " fill-opacity="1" fill-rule="nonzero"/><path fill="#b20035" d="M 0.238281 0 L 224.640625 0 L 224.640625 187 L 0.238281 187 Z M 0.238281 0 " fill-opacity="1" fill-rule="nonzero"/></g><g clip-path="url(#81cae95c1d)"><path fill="#ffffff" d="M 181.289062 19.496094 L 208.789062 19.496094 L 208.789062 46.34375 L 181.289062 46.34375 Z M 181.289062 19.496094 " fill-opacity="1" fill-rule="nonzero"/></g><g clip-path="url(#197e9ee15e)"><path fill="#99b83c" d="M 210.648438 13.511719 L 209.320312 14.429688 C 202.382812 19.214844 195.277344 29.128906 191.734375 37.183594 C 191.1875 36.414062 191.019531 36.15625 190.488281 35.296875 C 188.324219 32.34375 185.574219 29.808594 184.269531 28.875 L 182.234375 29.734375 L 182.296875 29.855469 C 183.707031 31.410156 186.171875 34.855469 189.894531 42.449219 C 190.121094 42.777344 190.363281 43.097656 190.640625 43.398438 C 191.367188 44.183594 192.113281 44.351562 192.613281 44.351562 C 194.035156 44.351562 194.871094 43.21875 195.449219 41.894531 C 199.171875 27.949219 207.976562 18.347656 211.785156 15.058594 Z M 210.648438 13.511719 " fill-opacity="1" fill-rule="nonzero"/></g></svg>