<svg xmlns="http://www.w3.org/2000/svg" xmlns:xlink="http://www.w3.org/1999/xlink" width="300" zoomAndPan="magnify" viewBox="0 0 224.87999 187.499995" height="250" preserveAspectRatio="xMidYMid meet" version="1.0"><defs><clipPath id="d50bd44a16"><path d="M 0.238281 0 L 224.519531 0 L 224.519531 187 L 0.238281 187 Z M 0.238281 0 " clip-rule="nonzero"/></clipPath><clipPath id="6510a56c81"><path d="M 172 91 L 224.519531 91 L 224.519531 187 L 172 187 Z M 172 91 " clip-rule="nonzero"/></clipPath><clipPath id="7541750e7f"><path d="M 140.578125 140.929688 L 202.460938 79.046875 L 264.34375 140.929688 L 202.460938 202.816406 Z M 140.578125 140.929688 " clip-rule="nonzero"/></clipPath><clipPath id="b017d16533"><path d="M 140.578125 140.929688 L 202.460938 79.046875 L 264.34375 140.929688 L 202.460938 202.816406 Z M 140.578125 140.929688 " clip-rule="nonzero"/></clipPath></defs><g clip-path="url(#d50bd44a16)"><path fill="#ffffff" d="M 0.238281 0 L 224.640625 0 L 224.640625 187 L 0.238281 187 Z M 0.238281 0 " fill-opacity="1" fill-rule="nonzero"/><path fill="#0e0e0e" d="M 0.238281 0 L 224.640625 0 L 224.640625 187 L 0.238281 187 Z M 0.238281 0 " fill-opacity="1" fill-rule="nonzero"/></g><g clip-path="url(#6510a56c81)"><g clip-path="url(#7541750e7f)"><g clip-path="url(#b017d16533)"><path fill="#ffffff" d="M 181.523438 99.980469 C 175.9375 105.570312 172.863281 112.996094 172.863281 120.898438 C 172.863281 128.796875 175.9375 136.226562 181.523438 141.8125 C 186.699219 146.984375 193.457031 149.972656 200.699219 150.390625 L 200.699219 154.128906 C 199.039062 154.464844 197.515625 155.277344 196.289062 156.503906 C 194.648438 158.144531 193.742188 160.332031 193.742188 162.652344 L 193.742188 190.492188 C 193.742188 192.816406 194.644531 195 196.289062 196.644531 C 197.933594 198.289062 200.117188 199.191406 202.4375 199.191406 C 204.761719 199.191406 206.949219 198.289062 208.589844 196.644531 C 210.234375 195 211.136719 192.816406 211.140625 190.492188 L 211.140625 162.652344 C 211.140625 158.453125 208.144531 154.9375 204.179688 154.128906 L 204.179688 150.390625 C 211.421875 149.972656 218.183594 146.984375 223.355469 141.8125 C 228.941406 136.226562 232.015625 128.796875 232.019531 120.898438 C 232.019531 112.996094 228.941406 105.570312 223.355469 99.980469 C 217.769531 94.394531 210.339844 91.320312 202.441406 91.316406 C 194.539062 91.316406 187.113281 94.394531 181.523438 99.980469 Z M 207.660156 162.652344 L 207.660156 190.492188 C 207.660156 193.28125 205.230469 195.710938 202.441406 195.710938 C 201.046875 195.710938 199.734375 195.167969 198.75 194.183594 C 197.761719 193.195312 197.21875 191.886719 197.21875 190.492188 L 197.21875 162.652344 C 197.21875 161.261719 197.765625 159.949219 198.75 158.964844 C 199.734375 157.976562 201.046875 157.433594 202.441406 157.433594 C 205.316406 157.433594 207.660156 159.773438 207.660156 162.652344 Z M 228.539062 120.894531 C 228.539062 127.867188 225.824219 134.421875 220.894531 139.351562 C 215.964844 144.28125 209.410156 146.992188 202.441406 146.992188 C 195.46875 146.992188 188.914062 144.28125 183.984375 139.351562 C 179.058594 134.421875 176.34375 127.867188 176.34375 120.894531 C 176.34375 113.925781 179.054688 107.371094 183.984375 102.441406 C 188.914062 97.511719 195.46875 94.800781 202.4375 94.800781 C 209.410156 94.800781 215.964844 97.515625 220.894531 102.441406 C 225.824219 107.371094 228.539062 113.925781 228.539062 120.894531 Z M 228.539062 120.894531 " fill-opacity="1" fill-rule="nonzero"/></g></g></g></svg>