<svg xmlns="http://www.w3.org/2000/svg" xmlns:xlink="http://www.w3.org/1999/xlink" width="300" zoomAndPan="magnify" viewBox="0 0 224.87999 187.499995" height="250" preserveAspectRatio="xMidYMid meet" version="1.0"><defs><filter x="0%" y="0%" width="100%" height="100%" id="1c3442414a"><feColorMatrix values="0 0 0 0 1 0 0 0 0 1 0 0 0 0 1 0 0 0 1 0" color-interpolation-filters="sRGB"/></filter><clipPath id="45379a2f20"><path d="M 0.238281 0 L 224.519531 0 L 224.519531 187 L 0.238281 187 Z M 0.238281 0 " clip-rule="nonzero"/></clipPath><clipPath id="53633e77d8"><path d="M 181 124 L 224.519531 124 L 224.519531 187 L 181 187 Z M 181 124 " clip-rule="nonzero"/></clipPath><mask id="476e577f92"><g filter="url(#1c3442414a)"><rect x="-22.487999" width="269.855988" fill="#000000" y="-18.749999" height="224.999994" fill-opacity="0.2"/></g></mask><clipPath id="10648c49f7"><path d="M 35 30 L 43.519531 30 L 43.519531 63 L 35 63 Z M 35 30 " clip-rule="nonzero"/></clipPath><clipPath id="7d117d4d3b"><path d="M 12 9 L 43.519531 9 L 43.519531 63 L 12 63 Z M 12 9 " clip-rule="nonzero"/></clipPath><clipPath id="2ca7ebcf31"><path d="M 23 19 L 43.519531 19 L 43.519531 63 L 23 63 Z M 23 19 " clip-rule="nonzero"/></clipPath><clipPath id="8081fa8d11"><path d="M 0.605469 0.28125 L 43.519531 0.28125 L 43.519531 63 L 0.605469 63 Z M 0.605469 0.28125 " clip-rule="nonzero"/></clipPath><clipPath id="0b3f36cf92"><rect x="0" width="44" y="0" height="63"/></clipPath><clipPath id="104254882d"><path d="M 0.238281 0 L 40 0 L 40 56 L 0.238281 56 Z M 0.238281 0 " clip-rule="nonzero"/></clipPath><mask id="30874d0a40"><g filter="url(#1c3442414a)"><rect x="-22.487999" width="269.855988" fill="#000000" y="-18.749999" height="224.999994" fill-opacity="0.2"/></g></mask><clipPath id="0dab2b6c9f"><path d="M 0.238281 0 L 8 0 L 8 7 L 0.238281 7 Z M 0.238281 0 " clip-rule="nonzero"/></clipPath><clipPath id="df4441143f"><path d="M 0.238281 16 L 8 16 L 8 24 L 0.238281 24 Z M 0.238281 16 " clip-rule="nonzero"/></clipPath><clipPath id="8c6b2a5fa5"><path d="M 0.238281 32 L 8 32 L 8 40 L 0.238281 40 Z M 0.238281 32 " clip-rule="nonzero"/></clipPath><clipPath id="7292f03cb5"><path d="M 0.238281 48 L 8 48 L 8 55.351562 L 0.238281 55.351562 Z M 0.238281 48 " clip-rule="nonzero"/></clipPath><clipPath id="e3e2bbefc3"><path d="M 16 48 L 24 48 L 24 55.351562 L 16 55.351562 Z M 16 48 " clip-rule="nonzero"/></clipPath><clipPath id="9a77179abc"><path d="M 32 0 L 39.136719 0 L 39.136719 7 L 32 7 Z M 32 0 " clip-rule="nonzero"/></clipPath><clipPath id="47494eacf4"><path d="M 32 16 L 39.136719 16 L 39.136719 24 L 32 24 Z M 32 16 " clip-rule="nonzero"/></clipPath><clipPath id="c26f147a4d"><path d="M 32 32 L 39.136719 32 L 39.136719 40 L 32 40 Z M 32 32 " clip-rule="nonzero"/></clipPath><clipPath id="2ce62cc5e2"><path d="M 32 48 L 39.136719 48 L 39.136719 55.351562 L 32 55.351562 Z M 32 48 " clip-rule="nonzero"/></clipPath><clipPath id="75c27a293c"><rect x="0" width="40" y="0" height="56"/></clipPath></defs><g clip-path="url(#45379a2f20)"><path fill="#ffffff" d="M 0.238281 0 L 224.640625 0 L 224.640625 187 L 0.238281 187 Z M 0.238281 0 " fill-opacity="1" fill-rule="nonzero"/><path fill="#032917" d="M 0.238281 0 L 224.640625 0 L 224.640625 187 L 0.238281 187 Z M 0.238281 0 " fill-opacity="1" fill-rule="nonzero"/></g><g clip-path="url(#53633e77d8)"><g mask="url(#476e577f92)"><g transform="matrix(1, 0, 0, 1, 181, 124)"><g clip-path="url(#0b3f36cf92)"><g clip-path="url(#10648c49f7)"><path fill="#ffffff" d="M 63.339844 34.671875 L 60.703125 30.09375 L 35.3125 75.03125 L 40.535156 75.03125 Z M 63.339844 34.671875 " fill-opacity="1" fill-rule="nonzero"/></g><g clip-path="url(#7d117d4d3b)"><path fill="#ffffff" d="M 51.65625 14.414062 L 49.011719 9.835938 L 12.171875 75.03125 L 17.402344 75.03125 Z M 51.65625 14.414062 " fill-opacity="1" fill-rule="nonzero"/></g><g clip-path="url(#2ca7ebcf31)"><path fill="#ffffff" d="M 57.496094 24.542969 L 54.855469 19.964844 L 23.738281 75.03125 L 28.96875 75.03125 Z M 57.496094 24.542969 " fill-opacity="1" fill-rule="nonzero"/></g><g clip-path="url(#8081fa8d11)"><path fill="#ffffff" d="M 45.808594 4.285156 L 43.53125 0.335938 L 9.070312 60.050781 L 0.605469 75.03125 L 5.835938 75.03125 Z M 45.808594 4.285156 " fill-opacity="1" fill-rule="nonzero"/></g></g></g></g></g><g clip-path="url(#104254882d)"><g mask="url(#30874d0a40)"><g transform="matrix(1, 0, 0, 1, 0.000000000000000056, 0)"><g clip-path="url(#75c27a293c)"><g clip-path="url(#0dab2b6c9f)"><path fill="#ffffff" d="M 0.332031 0 L 7.292969 0 L 7.292969 6.988281 L 0.332031 6.988281 Z M 0.332031 0 " fill-opacity="1" fill-rule="nonzero"/></g><g clip-path="url(#df4441143f)"><path fill="#ffffff" d="M 0.332031 16.121094 L 7.292969 16.121094 L 7.292969 23.109375 L 0.332031 23.109375 Z M 0.332031 16.121094 " fill-opacity="1" fill-rule="nonzero"/><path fill="#ffffff" d="M 0.332031 16.121094 L 7.292969 16.121094 L 7.292969 23.109375 L 0.332031 23.109375 Z M 0.332031 16.121094 " fill-opacity="1" fill-rule="nonzero"/></g><g clip-path="url(#8c6b2a5fa5)"><path fill="#ffffff" d="M 0.332031 32.246094 L 7.292969 32.246094 L 7.292969 39.234375 L 0.332031 39.234375 Z M 0.332031 32.246094 " fill-opacity="1" fill-rule="nonzero"/><path fill="#ffffff" d="M 0.332031 32.246094 L 7.292969 32.246094 L 7.292969 39.234375 L 0.332031 39.234375 Z M 0.332031 32.246094 " fill-opacity="1" fill-rule="nonzero"/></g><g clip-path="url(#7292f03cb5)"><path fill="#ffffff" d="M 0.332031 48.367188 L 7.292969 48.367188 L 7.292969 55.355469 L 0.332031 55.355469 Z M 0.332031 48.367188 " fill-opacity="1" fill-rule="nonzero"/></g><path fill="#ffffff" d="M 16.203125 0 L 23.164062 0 L 23.164062 6.988281 L 16.203125 6.988281 Z M 16.203125 0 " fill-opacity="1" fill-rule="nonzero"/><path fill="#ffffff" d="M 16.203125 16.121094 L 23.164062 16.121094 L 23.164062 23.109375 L 16.203125 23.109375 Z M 16.203125 16.121094 " fill-opacity="1" fill-rule="nonzero"/><path fill="#ffffff" d="M 16.203125 16.121094 L 23.164062 16.121094 L 23.164062 23.109375 L 16.203125 23.109375 Z M 16.203125 16.121094 " fill-opacity="1" fill-rule="nonzero"/><path fill="#ffffff" d="M 16.203125 32.246094 L 23.164062 32.246094 L 23.164062 39.234375 L 16.203125 39.234375 Z M 16.203125 32.246094 " fill-opacity="1" fill-rule="nonzero"/><path fill="#ffffff" d="M 16.203125 32.246094 L 23.164062 32.246094 L 23.164062 39.234375 L 16.203125 39.234375 Z M 16.203125 32.246094 " fill-opacity="1" fill-rule="nonzero"/><g clip-path="url(#e3e2bbefc3)"><path fill="#ffffff" d="M 16.203125 48.367188 L 23.164062 48.367188 L 23.164062 55.355469 L 16.203125 55.355469 Z M 16.203125 48.367188 " fill-opacity="1" fill-rule="nonzero"/></g><g clip-path="url(#9a77179abc)"><path fill="#ffffff" d="M 32.074219 0 L 39.035156 0 L 39.035156 6.988281 L 32.074219 6.988281 Z M 32.074219 0 " fill-opacity="1" fill-rule="nonzero"/></g><g clip-path="url(#47494eacf4)"><path fill="#ffffff" d="M 32.074219 16.121094 L 39.035156 16.121094 L 39.035156 23.109375 L 32.074219 23.109375 Z M 32.074219 16.121094 " fill-opacity="1" fill-rule="nonzero"/><path fill="#ffffff" d="M 32.074219 16.121094 L 39.035156 16.121094 L 39.035156 23.109375 L 32.074219 23.109375 Z M 32.074219 16.121094 " fill-opacity="1" fill-rule="nonzero"/></g><g clip-path="url(#c26f147a4d)"><path fill="#ffffff" d="M 32.074219 32.246094 L 39.035156 32.246094 L 39.035156 39.234375 L 32.074219 39.234375 Z M 32.074219 32.246094 " fill-opacity="1" fill-rule="nonzero"/><path fill="#ffffff" d="M 32.074219 32.246094 L 39.035156 32.246094 L 39.035156 39.234375 L 32.074219 39.234375 Z M 32.074219 32.246094 " fill-opacity="1" fill-rule="nonzero"/></g><g clip-path="url(#2ce62cc5e2)"><path fill="#ffffff" d="M 32.074219 48.367188 L 39.035156 48.367188 L 39.035156 55.355469 L 32.074219 55.355469 Z M 32.074219 48.367188 " fill-opacity="1" fill-rule="nonzero"/></g></g></g></g></g></svg>