<svg xmlns="http://www.w3.org/2000/svg" xmlns:xlink="http://www.w3.org/1999/xlink" width="1366" zoomAndPan="magnify" viewBox="0 0 1024.5 576" height="768" preserveAspectRatio="xMidYMid meet" version="1.0"><defs><g/><clipPath id="ab8aa0e24d"><path d="M 440.765625 397.734375 L 555.484375 397.734375 L 555.484375 411.292969 L 440.765625 411.292969 Z M 440.765625 397.734375 " clip-rule="nonzero"/></clipPath><clipPath id="ae0fa60080"><path d="M 389.617188 347.253906 L 505.894531 347.253906 L 505.894531 358.394531 L 389.617188 358.394531 Z M 389.617188 347.253906 " clip-rule="nonzero"/></clipPath><clipPath id="17475d7215"><path d="M 477.394531 182.3125 L 490.992188 182.3125 L 490.992188 298.589844 L 477.394531 298.589844 Z M 477.394531 182.3125 " clip-rule="nonzero"/></clipPath><clipPath id="a3c4fbb8ba"><path d="M 410.84375 186.324219 L 424.441406 186.324219 L 424.441406 302.601562 L 410.84375 302.601562 Z M 410.84375 186.324219 " clip-rule="nonzero"/></clipPath></defs><g fill="#ffffff" fill-opacity="1"><g transform="translate(284.195106, 397.797561)"><g><path d="M 74.785156 0 L 265.957031 0 L 299.613281 -34.121094 L 299.613281 -150.507812 L 265.957031 -186.03125 L 100.027344 -186.03125 L 85.535156 -200.519531 L 85.535156 -273.4375 L 100.027344 -287.925781 L 240.71875 -287.925781 L 255.207031 -273.4375 L 255.207031 -229.5 L 299.613281 -229.5 L 299.613281 -293.535156 L 265.957031 -327.191406 L 74.785156 -327.191406 L 41.132812 -293.535156 L 41.132812 -180.890625 L 74.785156 -146.769531 L 240.71875 -146.769531 L 255.207031 -132.277344 L 255.207031 -53.753906 L 240.71875 -39.261719 L 100.027344 -39.261719 L 85.535156 -53.753906 L 85.535156 -97.691406 L 41.132812 -97.691406 L 41.132812 -34.121094 Z M 74.785156 0 "/></g></g></g><g fill="#ffffff" fill-opacity="1"><g transform="translate(370.666397, 469.687891)"><g><path d="M 161.015625 0 L 209.199219 0 L 316.542969 -115.882812 L 316.542969 -308.613281 L 262.871094 -308.613281 L 262.871094 -129.910156 L 187.851562 -46.351562 L 182.363281 -46.351562 L 106.734375 -129.910156 L 106.734375 -308.613281 L 53.671875 -308.613281 L 53.671875 -115.882812 Z M 161.015625 0 "/></g></g></g><g clip-path="url(#ab8aa0e24d)"><path fill="#000000" d="M 440.765625 397.734375 L 555.484375 397.734375 L 555.484375 411.292969 L 440.765625 411.292969 Z M 440.765625 397.734375 " fill-opacity="1" fill-rule="nonzero"/></g><g clip-path="url(#ae0fa60080)"><path fill="#000000" d="M 389.617188 347.253906 L 505.894531 347.253906 L 505.894531 358.394531 L 389.617188 358.394531 Z M 389.617188 347.253906 " fill-opacity="1" fill-rule="nonzero"/></g><g clip-path="url(#17475d7215)"><path fill="#000000" d="M 477.394531 298.589844 L 477.394531 182.3125 L 490.992188 182.3125 L 490.992188 298.589844 Z M 477.394531 298.589844 " fill-opacity="1" fill-rule="nonzero"/></g><g clip-path="url(#a3c4fbb8ba)"><path fill="#000000" d="M 410.84375 302.601562 L 410.84375 186.324219 L 424.441406 186.324219 L 424.441406 302.601562 Z M 410.84375 302.601562 " fill-opacity="1" fill-rule="nonzero"/></g></svg>